<svg width="33" height="32" viewBox="0 0 33 32" fill="none" xmlns="http://www.w3.org/2000/svg">
<g clip-path="url(#clip0_1661_1034)">
<path fill-rule="evenodd" clip-rule="evenodd" d="M13.6199 27.0335C13.0613 28.3295 11.5066 29.0775 10.0626 28.3388C7.33461 26.9402 5.45728 25.3415 4.30928 23.5655C3.14794 21.7668 2.78928 19.8775 2.95061 18.0322C3.26528 14.4548 5.54528 11.0535 7.43328 8.5335C9.94528 5.18416 13.1399 3.3335 16.4999 3.3335C19.8599 3.3335 23.0546 5.18416 25.5666 8.5335C27.4346 11.0242 29.8866 14.4455 30.2866 18.0335C30.4933 19.8962 30.1533 21.8095 28.9426 23.6255C27.7506 25.4148 25.7786 27.0122 22.8919 28.4055C21.4479 29.1028 19.9079 28.3428 19.3679 27.0415C18.4053 27.6468 17.3973 28.0002 16.5013 28.0002C15.5999 28.0002 14.5853 27.6428 13.6186 27.0335H13.6199ZM9.56661 10.1335C11.7213 7.2615 14.1933 6.00016 16.4999 6.00016C18.8066 6.00016 21.2786 7.2615 23.4333 10.1335C25.3719 12.7175 27.3293 15.5762 27.6359 18.3282C27.7813 19.6348 27.5493 20.9068 26.7239 22.1468C25.8893 23.3975 24.3893 24.7068 21.8333 25.9562V24.7548C22.9879 23.2215 23.8333 21.1655 23.8333 18.6668C23.8333 18.1562 23.8066 17.6602 23.7519 17.1828C23.7152 16.8596 23.5615 16.5609 23.3199 16.3431C23.0782 16.1252 22.7653 16.0033 22.4399 16.0002C20.9797 15.9854 19.575 15.4388 18.4889 14.4626C17.4028 13.4865 16.7099 12.1479 16.5399 10.6975C16.5156 10.5063 16.4506 10.3225 16.3492 10.1586C16.2477 9.99473 16.1123 9.85451 15.952 9.74745C15.7918 9.64039 15.6104 9.56898 15.4201 9.53805C15.2299 9.50712 15.0352 9.51739 14.8493 9.56816C11.6573 10.4802 9.16661 13.8735 9.16661 18.6668C9.16661 21.1655 10.0119 23.2215 11.1666 24.7548V25.9068C8.78394 24.6695 7.35861 23.3682 6.54928 22.1162C5.73994 20.8655 5.49194 19.5802 5.60794 18.2668C5.84794 15.5268 7.65994 12.6722 9.56661 10.1335ZM11.8333 18.6668C11.8333 15.7042 12.9666 13.7682 14.2906 12.7842C14.8001 14.2835 15.7102 15.6148 16.9222 16.6339C18.1343 17.653 19.6021 18.321 21.1666 18.5655C21.1826 20.4428 20.5426 22.2842 19.2666 23.6748C18.1599 24.8842 16.9893 25.3335 16.4999 25.3335C16.0119 25.3335 14.8426 24.8842 13.7333 23.6748C12.6839 22.5295 11.8333 20.8442 11.8333 18.6668Z" fill="#003E9C"/>
</g>
<defs>
<clipPath id="clip0_1661_1034">
<rect width="32" height="32" fill="white" transform="translate(0.5)"/>
</clipPath>
</defs>
</svg>
