<svg width="36" height="33" viewBox="0 0 35 40" fill="none" xmlns="http://www.w3.org/2000/svg">
<path d="M13.125 19.2844C13.8133 23.8641 12.5523 26.368 8.99139 26.8946C5.03435 27.4797 3.40389 24.8289 2.71561 20.2493C1.78982 14.0868 3.96561 10.2539 7.06795 10.0071C9.89139 9.78285 12.4359 14.7055 13.125 19.2844ZM14.9726 31.9946C15.2172 34.5946 13.8117 37.0211 11.6914 37.4368C9.55076 37.8555 7.10467 36.1579 6.60623 33.5938C6.10779 31.0297 7.99295 30.8938 10.3031 30.4524C12.6133 30.011 14.6773 28.8586 14.9726 31.9946ZM21.875 11.7836C21.1867 16.3633 22.4476 18.8672 26.0078 19.3938C29.9656 19.9789 31.5953 17.3282 32.2836 12.7485C33.2101 6.58519 31.0336 2.73129 27.932 2.50629C25.0883 2.30004 22.564 7.20395 21.875 11.7836ZM20.0273 24.4946C19.7828 27.0938 21.1883 29.5211 23.3086 29.9368C25.4492 30.3555 27.8953 28.6579 28.3937 26.0938C28.8922 23.5297 27.007 23.3938 24.6969 22.9516C22.3867 22.5094 20.3226 21.3579 20.0273 24.4946Z" stroke="#003E9C" stroke-width="4" stroke-miterlimit="10"/>
</svg>
