<svg width="33" height="32" viewBox="0 0 33 32" fill="none" xmlns="http://www.w3.org/2000/svg">
<mask id="mask0_1661_1003" style="mask-type:luminance" maskUnits="userSpaceOnUse" x="4" y="1" width="25" height="29">
<path d="M8.5 22.6665H24.5V27.9998H8.5V22.6665Z" fill="#003E9C" stroke="white" stroke-width="3" stroke-linecap="round" stroke-linejoin="round"/>
<path d="M19.8327 22.6665V13.3332M15.166 22.6665V17.3332M8.49935 16.6665V22.6665H24.4993V16.6665C24.4993 16.6665 27.8327 14.6665 27.8327 11.3332C27.8327 7.99984 25.166 6.6665 21.8327 6.6665C21.8327 5.33317 19.8327 2.6665 16.4993 2.6665C13.166 2.6665 11.166 5.33317 11.166 6.6665C8.49935 6.6665 5.16602 7.99984 5.16602 11.3332C5.16602 14.6665 8.49935 16.6665 8.49935 16.6665Z" stroke="white" stroke-width="2" stroke-linecap="round" stroke-linejoin="round"/>
</mask>
<g mask="url(#mask0_1661_1003)">
<path d="M0.5 0H32.5V32H0.5V0Z" fill="#003E9C"/>
</g>
</svg>
