<svg width="32" height="32" viewBox="0 0 32 32" fill="none" xmlns="http://www.w3.org/2000/svg">
<path d="M6.66667 6.66667V10.6667H25.3333V6.66667H6.66667ZM5.33333 4H26.6667C27.0203 4 27.3594 4.14048 27.6095 4.39052C27.8595 4.64057 28 4.97971 28 5.33333V12C28 12.3536 27.8595 12.6928 27.6095 12.9428C27.3594 13.1929 27.0203 13.3333 26.6667 13.3333H5.33333C4.97971 13.3333 4.64057 13.1929 4.39052 12.9428C4.14048 12.6928 4 12.3536 4 12V5.33333C4 4.97971 4.14048 4.64057 4.39052 4.39052C4.64057 4.14048 4.97971 4 5.33333 4ZM8 16H16C16.3536 16 16.6928 16.1405 16.9428 16.3905C17.1929 16.6406 17.3333 16.9797 17.3333 17.3333V21.3333H18.6667V29.3333H13.3333V21.3333H14.6667V18.6667H6.66667C6.31304 18.6667 5.97391 18.5262 5.72386 18.2761C5.47381 18.0261 5.33333 17.687 5.33333 17.3333V14.6667H8V16ZM23.6427 18.3093L26 15.952L28.3573 18.3093C28.8234 18.7755 29.1408 19.3695 29.2693 20.0161C29.3979 20.6626 29.3318 21.3328 29.0795 21.9419C28.8272 22.5509 28.4 23.0714 27.8518 23.4377C27.3037 23.8039 26.6592 23.9994 26 23.9994C25.3408 23.9994 24.6963 23.8039 24.1482 23.4377C23.6 23.0714 23.1728 22.5509 22.9205 21.9419C22.6682 21.3328 22.6021 20.6626 22.7307 20.0161C22.8592 19.3695 23.1766 18.7755 23.6427 18.3093Z" fill="#003E9C"/>
</svg>
