<svg width="32" height="32" viewBox="0 0 32 32" fill="none" xmlns="http://www.w3.org/2000/svg">
<path d="M24.0007 24.6668C25.1073 24.6668 26.0007 23.7735 26.0007 22.6668C26.0007 21.5602 25.1073 20.6668 24.0007 20.6668C22.894 20.6668 22.0007 21.5602 22.0007 22.6668C22.0007 23.7735 22.894 24.6668 24.0007 24.6668ZM26.0007 12.6668H22.6673V16.0002H28.614L26.0007 12.6668ZM8.00065 24.6668C9.10732 24.6668 10.0007 23.7735 10.0007 22.6668C10.0007 21.5602 9.10732 20.6668 8.00065 20.6668C6.89398 20.6668 6.00065 21.5602 6.00065 22.6668C6.00065 23.7735 6.89398 24.6668 8.00065 24.6668ZM26.6673 10.6668L30.6673 16.0002V22.6668H28.0007C28.0007 24.8802 26.214 26.6668 24.0007 26.6668C21.7873 26.6668 20.0007 24.8802 20.0007 22.6668H12.0007C12.0007 24.8802 10.214 26.6668 8.00065 26.6668C5.78732 26.6668 4.00065 24.8802 4.00065 22.6668H1.33398V8.00016C1.33398 6.52016 2.52065 5.3335 4.00065 5.3335H22.6673V10.6668H26.6673ZM4.00065 8.00016V20.0002H5.01398C5.74732 19.1868 6.81398 18.6668 8.00065 18.6668C9.18732 18.6668 10.254 19.1868 10.9873 20.0002H20.0007V8.00016H4.00065ZM13.334 9.3335L18.0007 14.0002L13.334 18.6668V15.3335H6.66732V12.6668H13.334V9.3335Z" fill="#003E9C"/>
</svg>
