<svg width="32" height="34" viewBox="0 0 32 34" fill="none" xmlns="http://www.w3.org/2000/svg">
<path d="M13.3333 0.333496L25.4967 4.1335C25.8359 4.2394 26.1324 4.45097 26.3429 4.73731C26.5534 5.02365 26.6668 5.36978 26.6667 5.72516V8.66683H30C30.442 8.66683 30.866 8.84242 31.1785 9.15498C31.4911 9.46755 31.6667 9.89147 31.6667 10.3335V23.6668C31.6667 24.1089 31.4911 24.5328 31.1785 24.8453C30.866 25.1579 30.442 25.3335 30 25.3335L24.6333 25.3352C23.9883 26.1852 23.205 26.9352 22.3 27.5518L13.3333 33.6668L4.36667 27.5535C3.02087 26.6359 1.91959 25.4035 1.15857 23.9634C0.397547 22.5232 -0.000168705 20.919 5.36831e-08 19.2902V5.72516C0.00020101 5.37007 0.113811 5.02431 0.32427 4.7383C0.53473 4.4523 0.831036 4.24098 1.17 4.13516L13.3333 0.333496ZM13.3333 3.8235L3.33333 6.95016V19.2902C3.3331 20.3105 3.56708 21.3174 4.01727 22.2331C4.46747 23.1488 5.12184 23.9489 5.93 24.5718L6.245 24.7985L13.3333 29.6335L19.6367 25.3335H11.6667C11.2246 25.3335 10.8007 25.1579 10.4882 24.8453C10.1756 24.5328 10 24.1089 10 23.6668V10.3335C10 9.89147 10.1756 9.46755 10.4882 9.15498C10.8007 8.84242 11.2246 8.66683 11.6667 8.66683H23.3333V6.95016L13.3333 3.8235ZM13.3333 17.0002V22.0002H28.3333V17.0002H13.3333ZM13.3333 13.6668H28.3333V12.0002H13.3333V13.6668Z" fill="#003E9C"/>
</svg>
