<svg width="22" height="22" viewBox="0 0 22 22" fill="none" xmlns="http://www.w3.org/2000/svg">
<path d="M11.1632 17.2551L15.8882 20.2551C16.4976 20.6395 17.2476 20.0676 17.0695 19.3645L15.7007 13.9832C15.6637 13.8341 15.6696 13.6775 15.7177 13.5315C15.7658 13.3856 15.8542 13.2562 15.9726 13.1582L20.2101 9.62385C20.7632 9.16448 20.482 8.23635 19.7601 8.18948L14.2289 7.83323C14.0779 7.82444 13.9328 7.77189 13.8113 7.68199C13.6898 7.59208 13.597 7.46872 13.5445 7.32698L11.482 2.13323C11.4274 1.98314 11.3279 1.85348 11.1971 1.76186C11.0663 1.67024 10.9104 1.62109 10.7507 1.62109C10.591 1.62109 10.4352 1.67024 10.3044 1.76186C10.1735 1.85348 10.0741 1.98314 10.0195 2.13323L7.95698 7.32698C7.90441 7.46872 7.8117 7.59208 7.69016 7.68199C7.56862 7.77189 7.42353 7.82444 7.2726 7.83323L1.74135 8.18948C1.01948 8.23635 0.738228 9.16448 1.29135 9.62385L5.52885 13.1582C5.64729 13.2562 5.73565 13.3856 5.78375 13.5315C5.83186 13.6775 5.83774 13.8341 5.80073 13.9832L4.5351 18.9707C4.31948 19.8145 5.21948 20.4989 5.94135 20.0395L10.3382 17.2551C10.4615 17.1767 10.6046 17.1351 10.7507 17.1351C10.8968 17.1351 11.0399 17.1767 11.1632 17.2551Z" stroke="#003E9C" stroke-width="2" stroke-linecap="round" stroke-linejoin="round"/>
</svg>
