<svg width="33" height="32" viewBox="0 0 33 32" fill="none" xmlns="http://www.w3.org/2000/svg">
<path d="M25.6327 29.3002C25.4549 29.3002 25.2882 29.2722 25.1327 29.2162C24.9771 29.1602 24.8327 29.0659 24.6993 28.9335L17.8993 22.1335C17.766 22.0002 17.6713 21.8557 17.6153 21.7002C17.5593 21.5446 17.5318 21.3779 17.5327 21.2002C17.5327 21.0224 17.5607 20.8557 17.6167 20.7002C17.6727 20.5446 17.7669 20.4002 17.8993 20.2668L20.7327 17.4335C20.866 17.3002 21.0105 17.2059 21.166 17.1508C21.3216 17.0957 21.4882 17.0677 21.666 17.0668C21.8438 17.0668 22.0105 17.0948 22.166 17.1508C22.3216 17.2068 22.466 17.3011 22.5993 17.4335L29.3993 24.2335C29.5327 24.3668 29.6273 24.5113 29.6833 24.6668C29.7394 24.8224 29.7669 24.9891 29.766 25.1668C29.766 25.3446 29.738 25.5113 29.682 25.6668C29.626 25.8224 29.5318 25.9668 29.3993 26.1002L26.566 28.9335C26.4327 29.0668 26.2882 29.1615 26.1327 29.2175C25.9771 29.2735 25.8105 29.3011 25.6327 29.3002ZM25.6327 26.1335L26.5993 25.1668L21.6993 20.2668L20.7327 21.2335L25.6327 26.1335ZM7.33268 29.3335C7.1549 29.3335 6.98246 29.3002 6.81535 29.2335C6.64824 29.1668 6.49846 29.0668 6.36602 28.9335L3.56602 26.1335C3.43268 26.0002 3.33268 25.8499 3.26602 25.6828C3.19935 25.5157 3.16602 25.3437 3.16602 25.1668C3.16602 24.9891 3.19935 24.8224 3.26602 24.6668C3.33268 24.5113 3.43268 24.3668 3.56602 24.2335L10.6327 17.1668H13.466L14.5993 16.0335L9.09935 10.5335H7.19935L3.16602 6.50016L6.93268 2.7335L10.966 6.76683V8.66683L16.466 14.1668L20.3327 10.3002L18.8993 8.86683L20.766 7.00016H16.9993L16.066 6.06683L20.7994 1.3335L21.7327 2.26683V6.0335L23.5993 4.16683L28.3327 8.90016C28.7105 9.27794 28.9993 9.70594 29.1993 10.1842C29.3993 10.6624 29.4993 11.1677 29.4993 11.7002C29.4993 12.2335 29.3993 12.7446 29.1993 13.2335C28.9993 13.7224 28.7105 14.1557 28.3327 14.5335L25.4993 11.7002L23.6327 13.5668L22.2327 12.1668L15.3327 19.0668V21.8668L8.26602 28.9335C8.13268 29.0668 7.98824 29.1668 7.83268 29.2335C7.67713 29.3002 7.51046 29.3335 7.33268 29.3335ZM7.33268 26.1335L12.9993 20.4668V19.5002H12.0327L6.36602 25.1668L7.33268 26.1335ZM7.33268 26.1335L6.36602 25.1668L6.86602 25.6335L7.33268 26.1335Z" fill="#003E9C"/>
</svg>
